<svg xmlns="http://www.w3.org/2000/svg" xmlns:xlink="http://www.w3.org/1999/xlink" width="106" height="106" viewBox="0 0 106 106"><defs><path id="vbrhb" d="M342 979a2 2 0 0 1 2-2h30a2 2 0 0 1 2 2v30a2 2 0 0 1-2 2h-30a2 2 0 0 1-2-2z"/><path id="vbrhd" d="M335 967a4 4 0 0 1 4-4h40a4 4 0 0 1 4 4v40a4 4 0 0 1-4 4h-40a4 4 0 0 1-4-4z"/><path id="vbrhf" d="M347.87 976.17a3 3 0 0 1 3-3h15.7a3 3 0 0 1 3 3v14.109l1.724 1.724a3 3 0 0 1-4.242 4.243l-1.377-1.377H347.87z"/><linearGradient id="vbrhc" x1="376" x2="342" y1="1011" y2="977" gradientUnits="userSpaceOnUse"><stop offset="0" stop-color="#1bcedf" stop-opacity=".3"/><stop offset="1" stop-color="#5b247a" stop-opacity=".3"/></linearGradient><filter id="vbrha" width="316%" height="316%" x="-98%" y="-98%" filterUnits="objectBoundingBox"><feGaussianBlur in="SourceGraphic" result="FeGaussianBlur1059Out" stdDeviation="15 15"/></filter><linearGradient id="vbrhe" x1="383" x2="335" y1="1011" y2="963" gradientUnits="userSpaceOnUse"><stop offset="0" stop-color="#17ead9" stop-opacity=".1"/><stop offset=".34" stop-color="#22d9db"/><stop offset="1" stop-color="#6078ea"/></linearGradient></defs><g><g transform="translate(-306 -941)"><g filter="url(#vbrha)"><use fill="url(#vbrhc)" xlink:href="#vbrhb"/><use fill="#fff" fill-opacity=".05" xlink:href="#vbrhb"/></g><g><use fill="url(#vbrhe)" xlink:href="#vbrhd"/></g></g><g transform="translate(-306 -941)"><g transform="rotate(90 360.5 985.5)"><use fill="#fff" xlink:href="#vbrhf"/></g></g></g></svg>