<svg xmlns="http://www.w3.org/2000/svg" xmlns:xlink="http://www.w3.org/1999/xlink" width="48" height="48" viewBox="0 0 48 48"><defs><path id="rrmea" d="M335 967a4 4 0 0 1 4-4h40a4 4 0 0 1 4 4v40a4 4 0 0 1-4 4h-40a4 4 0 0 1-4-4z"/><path id="rrmec" d="M347.87 976.17a3 3 0 0 1 3-3h15.7a3 3 0 0 1 3 3v14.109l1.724 1.724a3 3 0 0 1-4.242 4.243l-1.377-1.377H347.87z"/><linearGradient id="rrmeb" x1="383" x2="335" y1="1011" y2="963" gradientUnits="userSpaceOnUse"><stop offset="0" stop-color="#17ead9" stop-opacity=".1"/><stop offset=".34" stop-color="#22d9db"/><stop offset="1" stop-color="#6078ea"/></linearGradient></defs><g><g transform="translate(-335 -963)"><use fill="url(#rrmeb)" xlink:href="#rrmea"/></g><g transform="translate(-335 -963)"><g transform="rotate(90 360.5 985.5)"><use fill="#fff" xlink:href="#rrmec"/></g></g></g></svg>