<svg xmlns="http://www.w3.org/2000/svg" xmlns:xlink="http://www.w3.org/1999/xlink" width="106" height="106" viewBox="0 0 106 106"><defs><path id="x1h0b" d="M799 979a2 2 0 0 1 2-2h30a2 2 0 0 1 2 2v30a2 2 0 0 1-2 2h-30a2 2 0 0 1-2-2z"/><path id="x1h0d" d="M792 967a4 4 0 0 1 4-4h40a4 4 0 0 1 4 4v40a4 4 0 0 1-4 4h-40a4 4 0 0 1-4-4z"/><path id="x1h0f" d="M805.567 976.56h13.98c1.11 0 2.013.986 2.013 2.197v1.803h-16.174c-.992 0-1.79-.846-1.826-1.93.06-1.162.94-2.07 2.007-2.07z"/><path id="x1h0g" d="M821.56 991.527a2.32 2.32 0 0 1-2.32-2.314 2.321 2.321 0 0 1 4.639 0 2.318 2.318 0 0 1-2.32 2.314zm3.886-10.219h-2.224c-.084 0-.168.007-.25.018-.018.002-.036.002-.053.002-.029 0-.055-.009-.084-.016-.016-.001-.033.003-.049-.004h-17.303c-.095 0-.187-.004-.28-.013-.03-.002-.06-.009-.09-.01-.063-.01-.123-.017-.182-.03-.036-.007-.07-.017-.104-.024-.055-.014-.108-.024-.16-.04-.037-.01-.072-.026-.11-.037-.046-.018-.095-.033-.143-.051-.036-.015-.071-.033-.107-.049-.046-.02-.09-.04-.132-.064-.036-.017-.071-.037-.107-.057-.04-.024-.081-.048-.12-.073-.036-.022-.068-.046-.103-.07-.037-.027-.075-.053-.112-.084l-.093-.077-.08-.069v13.888c0 1.165.949 2.112 2.114 2.112h19.772a2.115 2.115 0 0 0 2.114-2.112V983.42a2.114 2.114 0 0 0-2.114-2.112z"/><linearGradient id="x1h0c" x1="833" x2="799" y1="1011" y2="977" gradientUnits="userSpaceOnUse"><stop offset="0" stop-color="#1bcedf" stop-opacity=".3"/><stop offset="1" stop-color="#5b247a" stop-opacity=".3"/></linearGradient><filter id="x1h0a" width="316%" height="316%" x="-98%" y="-98%" filterUnits="objectBoundingBox"><feGaussianBlur in="SourceGraphic" result="FeGaussianBlur1128Out" stdDeviation="15 15"/></filter><linearGradient id="x1h0e" x1="792" x2="840" y1="963" y2="1011" gradientUnits="userSpaceOnUse"><stop offset="0" stop-color="#43e695"/><stop offset="1" stop-color="#3bb2b8"/></linearGradient></defs><g><g transform="translate(-763 -941)"><g filter="url(#x1h0a)"><use fill="url(#x1h0c)" xlink:href="#x1h0b"/><use fill="#fff" fill-opacity=".05" xlink:href="#x1h0b"/></g><g><use fill="url(#x1h0e)" xlink:href="#x1h0d"/></g><g transform="rotate(-45 815.5 988.5)"><g><use fill="#fff" xlink:href="#x1h0f"/></g><g><use fill="#fff" xlink:href="#x1h0g"/></g></g></g></g></svg>