<svg xmlns="http://www.w3.org/2000/svg" xmlns:xlink="http://www.w3.org/1999/xlink" width="106" height="106" viewBox="0 0 106 106"><defs><path id="jpoob" d="M342 808a2 2 0 0 1 2-2h30a2 2 0 0 1 2 2v30a2 2 0 0 1-2 2h-30a2 2 0 0 1-2-2z"/><path id="jpood" d="M335 799a4 4 0 0 1 4-4h40a4 4 0 0 1 4 4v40a4 4 0 0 1-4 4h-40a4 4 0 0 1-4-4z"/><path id="jpoof" d="M365.124 827.651a.924.924 0 0 0-.865-.651H350.33c-.444 0-.825.339-.904.805l-.416 2.447a.687.687 0 0 0 .022.335c.087.256.31.413.549.413h15.822c.119 0 .237-.032.336-.103a.645.645 0 0 0 .226-.727z"/><path id="jpoog" d="M361.593 811.525h-.794c-.322 0-.583-.235-.583-.524 0-.289.26-.523.583-.523h.794c.322 0 .583.234.583.523 0 .29-.26.524-.583.524zm6.309 3.405l-4.494-6.101.865-2.117a.492.492 0 0 0-.119-.542.624.624 0 0 0-.588-.15l-4.237 1.085c-.414-.007-1.97.022-3.694.737-1.823.756-4.187 2.448-5.095 6.214-1.253 5.2-.033 9.168.724 10.944h12l1.071-.97a.491.491 0 0 0 .078-.659c-.988-1.39-3.319-4.89-4.22-7.067.33.102.704.168 1.1.15a2.72 2.72 0 0 0 1.531-.556l1.645.993a2.321 2.321 0 0 0 1.73.26c.59-.143 1.085-.507 1.358-1.002l.381-.69a.485.485 0 0 0-.036-.529z"/><linearGradient id="jpooc" x1="376" x2="342" y1="840" y2="806" gradientUnits="userSpaceOnUse"><stop offset="0" stop-color="#ff7676" stop-opacity=".3"/><stop offset="1" stop-color="#f54ea2" stop-opacity=".3"/></linearGradient><filter id="jpooa" width="316%" height="316%" x="-98%" y="-98%" filterUnits="objectBoundingBox"><feGaussianBlur in="SourceGraphic" result="FeGaussianBlur1022Out" stdDeviation="15 15"/></filter><linearGradient id="jpooe" x1="383" x2="335" y1="843" y2="795" gradientUnits="userSpaceOnUse"><stop offset="0" stop-color="#ff7676"/><stop offset="1" stop-color="#f54ea2"/></linearGradient></defs><g><g transform="translate(-306 -770)"><g filter="url(#jpooa)"><use fill="url(#jpooc)" xlink:href="#jpoob"/><use fill-opacity=".05" xlink:href="#jpoob"/></g><g><use fill="url(#jpooe)" xlink:href="#jpood"/></g></g><g transform="matrix(-1 0 0 1 411 -770)"><g><use fill="#fff" xlink:href="#jpoof"/></g><g><use fill="#fff" xlink:href="#jpoog"/></g></g></g></svg>