<svg xmlns="http://www.w3.org/2000/svg" xmlns:xlink="http://www.w3.org/1999/xlink" width="106" height="106" viewBox="0 0 106 106"><defs><path id="2bhnc" d="M799 810a2 2 0 0 1 2-2h30a2 2 0 0 1 2 2v30a2 2 0 0 1-2 2h-30a2 2 0 0 1-2-2z"/><path id="2bhne" d="M792 798a4 4 0 0 1 4-4h40a4 4 0 0 1 4 4v40a4 4 0 0 1-4 4h-40a4 4 0 0 1-4-4z"/><path id="2bhna" d="M817.06 802.04h-9v31h18v-31z"/><path id="2bhnh" d="M817.272 815.33a2.502 2.502 0 0 1-2.502-2.498 2.499 2.499 0 1 1 5 0 2.498 2.498 0 0 1-2.498 2.498zm5.685 6.525v-3.808c0-8.5-3.523-13.638-4.997-15.41a.834.834 0 0 0-1.283-.01c-1.497 1.773-5.09 6.911-5.09 15.42v3.813l-.692.47a4.964 4.964 0 0 0-2.125 4.083v4.55c0 .268.148.517.378.645a.7.7 0 0 0 .735-.037l2.24-1.523a3.792 3.792 0 0 1 2.124-.655h1.644v2.206c0 .405.324.731.721.731h1.316c.397 0 .72-.326.72-.731v-2.206h1.644c.758 0 1.497.225 2.125.655l2.24 1.523a.7.7 0 0 0 .735.037.733.733 0 0 0 .378-.645v-4.55a4.97 4.97 0 0 0-2.125-4.082z"/><linearGradient id="2bhnd" x1="799" x2="833" y1="808" y2="842" gradientUnits="userSpaceOnUse"><stop offset="0" stop-color="#fce38a" stop-opacity=".3"/><stop offset="1" stop-color="#f38181" stop-opacity=".3"/></linearGradient><filter id="2bhnb" width="316%" height="316%" x="-98%" y="-98%" filterUnits="objectBoundingBox"><feGaussianBlur in="SourceGraphic" result="FeGaussianBlur1092Out" stdDeviation="15 15"/></filter><linearGradient id="2bhnf" x1="835.85" x2="792" y1="842" y2="804.32" gradientUnits="userSpaceOnUse"><stop offset="0" stop-color="#fce38a"/><stop offset="1" stop-color="#f38181"/></linearGradient><clipPath id="2bhng"><use xlink:href="#2bhna"/></clipPath></defs><g><g transform="translate(-763 -772)"><g filter="url(#2bhnb)"><use fill="url(#2bhnd)" xlink:href="#2bhnc"/><use fill-opacity=".05" xlink:href="#2bhnc"/></g><g><use fill="url(#2bhnf)" xlink:href="#2bhne"/></g></g><g transform="rotate(42 1441.564 -562.841)"><g/><g clip-path="url(#2bhng)"><use fill="#fff" xlink:href="#2bhnh"/></g></g></g></svg>