<svg xmlns="http://www.w3.org/2000/svg" xmlns:xlink="http://www.w3.org/1999/xlink" width="142" height="20" viewBox="0 0 142 20"><defs><path id="1hwda" d="M83.724 33c3.64 0 5.696 2.17 5.696 5.119 0 1.956-1.16 3.537-2.716 4.073 1.82.456 3.296 2.144 3.296 4.502C90 49.776 87.732 52 84.225 52H77V33zm-.559 7.852c1.659 0 2.659-.938 2.659-2.385 0-1.447-.921-2.358-2.685-2.358h-2.553v4.743zm.375 8.066c1.766 0 2.821-.938 2.821-2.465 0-1.5-.95-2.546-2.769-2.546h-3.006v5.011z"/><path id="1hwdb" d="M94 32c1.122 0 2 1.005 2 2.256 0 1.195-.878 2.2-2 2.2-1.098 0-2-1.005-2-2.2 0-1.25.902-2.256 2-2.256zm-1.61 20h3.244V38.63H92.39z"/><path id="1hwdc" d="M103.555 51H100V38.335h3.448v1.57c.801-1.313 2.378-1.905 3.795-1.905 3.26 0 4.757 2.24 4.757 5.02V51h-3.554v-7.388c0-1.416-.722-2.523-2.432-2.523-1.55 0-2.46 1.158-2.46 2.626z"/><path id="1hwdd" d="M129 45c0 4.05-3.012 7-7 7s-7-2.95-7-7c0-4.077 3.012-7 7-7s7 2.923 7 7m-3.609-.005c0-2.491-1.627-3.75-3.391-3.75s-3.391 1.259-3.391 3.75c0 2.464 1.627 3.75 3.391 3.75s3.391-1.259 3.391-3.75"/><path id="1hwde" d="M135.216 38.868H138v3.106h-2.784v5.42c0 1.132.562 1.5 1.631 1.5.45 0 .956-.052 1.153-.105v2.895c-.337.132-1.013.316-2.11.316-2.7 0-4.387-1.5-4.387-4v-6.026H129v-3.106h.703c1.462 0 2.138-.894 2.138-2.052V35h3.375z"/><path id="1hwdf" d="M149 41.565a5.419 5.419 0 0 0-1.067-.105c-1.813 0-3.386.864-3.386 3.643V51H141V38.105h3.44v1.913c.8-1.704 2.613-2.018 3.733-2.018.294 0 .56.026.827.052z"/><path id="1hwdg" d="M155 44.02l3.292-.484c.762-.108 1.007-.484 1.007-.941 0-.94-.734-1.72-2.258-1.72-1.579 0-2.45.995-2.558 2.15l-3.21-.672c.217-2.069 2.149-4.353 5.74-4.353 4.246 0 5.824 2.365 5.824 5.025v6.503c0 .698.081 1.639.163 2.096h-3.32c-.082-.35-.136-1.075-.136-1.586-.68 1.048-1.959 1.962-3.945 1.962-2.858 0-4.599-1.908-4.599-3.977 0-2.365 1.769-3.681 4-4.004m4.3 2.257v-.59l-3.021.456c-.925.134-1.66.645-1.66 1.666 0 .78.572 1.532 1.742 1.532 1.523 0 2.938-.726 2.938-3.064"/><path id="1hwdh" d="M178.89 49.256c0 .896.055 1.874.11 2.418h-3.486a9.112 9.112 0 0 1-.137-1.549c-.604 1.06-1.977 1.875-3.789 1.875-3.843 0-6.588-2.99-6.588-7.038 0-3.913 2.663-6.984 6.478-6.984 2.334 0 3.432.951 3.816 1.658V32h3.596zm-6.863-.48c1.867 0 3.322-1.415 3.322-3.836 0-2.395-1.455-3.728-3.322-3.728-1.866 0-3.349 1.36-3.349 3.755 0 2.394 1.428 3.81 3.35 3.81z"/><path id="1hwdi" d="M193.812 47.816c-.67 2.28-2.76 4.184-6.004 4.184-3.618 0-6.808-2.602-6.808-7.054 0-4.21 3.11-6.946 6.487-6.946 4.074 0 6.513 2.602 6.513 6.84 0 .509-.054 1.045-.054 1.099h-9.435c.08 1.743 1.555 3.003 3.324 3.003 1.662 0 2.573-.83 3.002-2.011zm-3.323-4.318c-.054-1.314-.912-2.601-2.949-2.601-1.85 0-2.868 1.394-2.948 2.601z"/><path id="1hwdj" d="M52 33v18l.198-.177 5.922-5.298 5.095-7.975.147-.23.231-.15L70 33z"/><path id="1hwdk" d="M64.143 38.493L59 46.597 53 52h18V34z"/></defs><g><g transform="translate(-52 -32)"><g><use fill="#fff" xlink:href="#1hwda"/></g><g><use fill="#fff" xlink:href="#1hwdb"/></g><g><use fill="#fff" xlink:href="#1hwdc"/></g><g><use fill="#fff" xlink:href="#1hwdd"/></g><g><use fill="#fff" xlink:href="#1hwde"/></g><g><use fill="#fff" xlink:href="#1hwdf"/></g><g><use fill="#fff" xlink:href="#1hwdg"/></g><g><use fill="#fff" xlink:href="#1hwdh"/></g><g><use fill="#fff" xlink:href="#1hwdi"/></g></g><g transform="translate(-52 -32)"><g><use fill="#fff" xlink:href="#1hwdj"/></g><g><use fill="#fff" xlink:href="#1hwdk"/></g></g></g></svg>