<svg xmlns="http://www.w3.org/2000/svg" xmlns:xlink="http://www.w3.org/1999/xlink" width="421" height="416" viewBox="0 0 421 416"><defs><path id="9t2eb" d="M1012.233 1437.22l-25.193 62.979h138.562v-62.979h-113.369"/><path id="9t2ec" d="M898.87 1500.199h113.369v-62.979H898.87z"/><path id="9t2ed" d="M804.39 1512.793v251.915h88.176l-37.79-302.298c-27.712 0-50.386 22.673-50.386 50.383"/><path id="9t2ef" d="M854.78 1462.41v302.298l157.456-25.191V1462.41H854.78"/><path id="9t2eg" d="M816.45 1752.065v-12.595h346.405v50.383H854.24c-20.837 0-37.79-16.952-37.79-37.788z"/><path id="9t2ei" d="M1175.988 1813.964H854.776c-27.45 0-49.772-21.948-50.374-49.252h-.012c0-.189.001-.377.003-.566a51.494 51.494 0 0 1-.003-.565l.013-.013c.608-27.297 22.928-49.238 50.373-49.238h345.322v25.19h-24.11zm-321.212-25.192h296.019v-49.251H854.776c-13.725 0-24.886 10.974-25.187 24.625.301 13.653 11.462 24.626 25.187 24.626z"/><path id="9t2ea" d="M897.93 1841.47v-102h227.48v102z"/><path id="9t2em" d="M897.93 1588.96V1426h227.48v162.96z"/><path id="9t2eo" d="M853.8 1462.21h340.31a6 6 0 0 1 6 6v246.36H853.8z"/><path id="9t2eq" d="M1067.69 1591.79c0-27.813 22.547-50.36 50.36-50.36H1219a6 6 0 0 1 6 6v88.72a6 6 0 0 1-6 6h-100.95c-27.813 0-50.36-22.547-50.36-50.36z"/><linearGradient id="9t2ee" x1="828.37" x2="852.42" y1="1505.75" y2="1741.81" gradientUnits="userSpaceOnUse"><stop offset="0" stop-color="#1acbfd"/><stop offset="1" stop-color="#345aff"/></linearGradient><linearGradient id="9t2eh" x1="967.29" x2="1005.14" y1="1636.79" y2="1786.03" gradientUnits="userSpaceOnUse"><stop offset="0" stop-color="#1acbfd"/><stop offset="1" stop-color="#345aff"/></linearGradient><linearGradient id="9t2ej" x1="1011.79" x2="1002.25" y1="1568.14" y2="1807.02" gradientUnits="userSpaceOnUse"><stop offset="0" stop-color="#1acbfd"/><stop offset="1" stop-color="#345aff"/></linearGradient><linearGradient id="9t2ek" x1="1124.49" x2="858" y1="1841.23" y2="1770.87" gradientUnits="userSpaceOnUse"><stop offset="0" stop-color="#1cffbe"/><stop offset="1" stop-color="#35e9f2"/></linearGradient><linearGradient id="9t2en" x1="1124.49" x2="858" y1="1588.57" y2="1476.16" gradientUnits="userSpaceOnUse"><stop offset="0" stop-color="#1cffbe"/><stop offset="1" stop-color="#35e9f2"/></linearGradient><linearGradient id="9t2ep" x1="853.8" x2="1042.43" y1="1462.21" y2="1695.45" gradientUnits="userSpaceOnUse"><stop offset="0" stop-color="#1acbfd"/><stop offset="1" stop-color="#345aff"/></linearGradient><linearGradient id="9t2er" x1="1106.58" x2="1234.73" y1="1541.43" y2="1650.46" gradientUnits="userSpaceOnUse"><stop offset="0" stop-color="#1acbfd"/><stop offset="1" stop-color="#345aff"/></linearGradient><clipPath id="9t2el"><use xlink:href="#9t2ea"/></clipPath></defs><g><g transform="translate(-804 -1426)"><g><use fill="#39b295" xlink:href="#9t2eb"/></g><g><use fill="#59bba8" xlink:href="#9t2ec"/></g><g><use fill="url(#9t2ee)" xlink:href="#9t2ed"/></g><g><use fill="#b72d33" xlink:href="#9t2ef"/></g><g><use fill="url(#9t2eh)" xlink:href="#9t2eg"/></g><g><use fill="url(#9t2ej)" xlink:href="#9t2ei"/></g><g><g><use fill="url(#9t2ek)" xlink:href="#9t2ea"/></g><g clip-path="url(#9t2el)" opacity=".67"><g><text fill="#fff" dominant-baseline="text-before-edge" font-family="Qanelas-Black" font-size="80" letter-spacing="5.8" transform="translate(939 1709)"><tspan>$</tspan></text></g></g></g><g><use fill="url(#9t2en)" xlink:href="#9t2em"/></g><g opacity=".67"/><g><use fill="url(#9t2ep)" xlink:href="#9t2eo"/></g><g><use fill="url(#9t2er)" xlink:href="#9t2eq"/></g></g></g></svg>